<svg xmlns="http://www.w3.org/2000/svg" width="1000" height="755" viewBox="0 0 1000 755">
<rect width="100%" height="100%" fill="#FCFAF7"/>
<defs><marker id="arrow" markerWidth="9" markerHeight="9" refX="7" refY="3.5" orient="auto"><path d="M0,0 L7,3.5 L0,7" fill="none" stroke="#70757A" stroke-width="1.2"/></marker></defs>
<path d="M500.0,76 L150.0,135" fill="none" stroke="#70757A" stroke-width="1.6" marker-end="url(#arrow)"/>
<path d="M500.0,76 L500.0,135" fill="none" stroke="#70757A" stroke-width="1.6" marker-end="url(#arrow)"/>
<path d="M500.0,76 L850.0,135" fill="none" stroke="#70757A" stroke-width="1.6" marker-end="url(#arrow)"/>
<path d="M150.0,225 L332.5,311" fill="none" stroke="#70757A" stroke-width="1.6" marker-end="url(#arrow)"/>
<path d="M500.0,225 L332.5,311" fill="none" stroke="#70757A" stroke-width="1.6" marker-end="url(#arrow)"/>
<path d="M485,349.0 L585,349.0" fill="none" stroke="#70757A" stroke-width="1.6" marker-end="url(#arrow)"/>
<path d="M850.0,225 L757.5,311" fill="none" stroke="#70757A" stroke-width="1.6" marker-end="url(#arrow)"/>
<path d="M757.5,387 L750.0,455" fill="none" stroke="#70757A" stroke-width="1.6" marker-end="url(#arrow)"/>
<path d="M750.0,549 L295.0,601" fill="none" stroke="#70757A" stroke-width="1.6" marker-end="url(#arrow)"/>
<text x="530.5" y="565.0" font-family="Noto Sans CJK SC" font-size="16" fill="#70757A">退化后回退</text>
<path d="M332.5,387 L295.0,601" fill="none" stroke="#70757A" stroke-width="1.6" marker-end="url(#arrow)"/>
<rect x="325" y="10" width="350" height="66" rx="7" fill="#FFFDFC" stroke="#5B9FBE" stroke-width="1.8"/>
<text x="500.0" y="49.0" text-anchor="middle" font-family="Noto Sans CJK SC" font-size="19" font-weight="700" fill="#2D3238">R0｜原始参考策略</text>
<rect x="20" y="135" width="260" height="90" rx="7" fill="#FFFDFC" stroke="#5B9FBE" stroke-width="1.8"/>
<text x="150.0" y="174.0" text-anchor="middle" font-family="Noto Sans CJK SC" font-size="19" font-weight="700" fill="#2D3238">点数门槛 5→2</text>
<text x="150.0" y="198.0" text-anchor="middle" font-family="Noto Sans CJK SC" font-size="17" font-weight="400" fill="#2D3238">单独检查点数过滤的作用</text>
<rect x="365" y="135" width="270" height="90" rx="7" fill="#FFFDFC" stroke="#5B9FBE" stroke-width="1.8"/>
<text x="500.0" y="174.0" text-anchor="middle" font-family="Noto Sans CJK SC" font-size="19" font-weight="700" fill="#2D3238">长度下限 65→0</text>
<text x="500.0" y="198.0" text-anchor="middle" font-family="Noto Sans CJK SC" font-size="17" font-weight="400" fill="#2D3238">单独检查长度过滤的作用</text>
<rect x="720" y="135" width="260" height="90" rx="7" fill="#FFFDFC" stroke="#5B9FBE" stroke-width="1.8"/>
<text x="850.0" y="174.0" text-anchor="middle" font-family="Noto Sans CJK SC" font-size="19" font-weight="700" fill="#2D3238">G0｜方向条件规则</text>
<text x="850.0" y="198.0" text-anchor="middle" font-family="Noto Sans CJK SC" font-size="17" font-weight="400" fill="#2D3238">在可计算的规定条件下使用</text>
<rect x="180" y="311" width="305" height="76" rx="7" fill="#FFFDFC" stroke="#5B9FBE" stroke-width="1.8"/>
<text x="332.5" y="343.0" text-anchor="middle" font-family="Noto Sans CJK SC" font-size="19" font-weight="700" fill="#2D3238">S0｜两项过滤调整</text>
<text x="332.5" y="367.0" text-anchor="middle" font-family="Noto Sans CJK SC" font-size="17" font-weight="400" fill="#2D3238">保留其独立作用与比较依据</text>
<rect x="585" y="311" width="345" height="76" rx="7" fill="#FFFDFC" stroke="#8177A8" stroke-width="1.8"/>
<text x="757.5" y="343.0" text-anchor="middle" font-family="Noto Sans CJK SC" font-size="19" font-weight="700" fill="#2D3238">S0 + G0｜有依据地组合</text>
<text x="757.5" y="367.0" text-anchor="middle" font-family="Noto Sans CJK SC" font-size="17" font-weight="400" fill="#2D3238">开发阶段曾获得支持</text>
<rect x="570" y="455" width="360" height="94" rx="7" fill="#FFFDFC" stroke="#B97589" stroke-width="1.8"/>
<text x="750.0" y="484.0" text-anchor="middle" font-family="Noto Sans CJK SC" font-size="19" font-weight="700" fill="#2D3238">选择记录：3017 / 9311 / 9534</text>
<text x="750.0" y="508.0" text-anchor="middle" font-family="Noto Sans CJK SC" font-size="17" font-weight="400" fill="#2D3238">共同几何偏差退化</text>
<text x="750.0" y="532.0" text-anchor="middle" font-family="Noto Sans CJK SC" font-size="17" font-weight="400" fill="#2D3238">触发既定的保护与退出规则</text>
<rect x="80" y="601" width="430" height="91" rx="7" fill="#FFFDFC" stroke="#8177A8" stroke-width="1.8"/>
<text x="295.0" y="628.5" text-anchor="middle" font-family="Noto Sans CJK SC" font-size="19" font-weight="700" fill="#2D3238">回到S0，固定方法</text>
<text x="295.0" y="652.5" text-anchor="middle" font-family="Noto Sans CJK SC" font-size="17" font-weight="400" fill="#2D3238">600条保留记录确认</text>
<text x="295.0" y="676.5" text-anchor="middle" font-family="Noto Sans CJK SC" font-size="17" font-weight="400" fill="#2D3238">再完成全量处理</text>
<rect x="600" y="608" width="360" height="84" rx="7" fill="#FFFDFC" stroke="#8177A8" stroke-width="1.8"/>
<text x="780.0" y="632.0" text-anchor="middle" font-family="Noto Sans CJK SC" font-size="19" font-weight="700" fill="#2D3238">其他尝试也留下结果</text>
<text x="780.0" y="656.0" text-anchor="middle" font-family="Noto Sans CJK SC" font-size="17" font-weight="400" fill="#2D3238">P2未增益；P10越共同预算</text>
<text x="780.0" y="680.0" text-anchor="middle" font-family="Noto Sans CJK SC" font-size="17" font-weight="400" fill="#2D3238">据此保留已获支持的简单方案</text>
</svg>