<?xml version="1.0" encoding="utf-8" standalone="no"?>
<!DOCTYPE svg PUBLIC "-//W3C//DTD SVG 1.1//EN"
  "http://www.w3.org/Graphics/SVG/1.1/DTD/svg11.dtd">
<svg xmlns:xlink="http://www.w3.org/1999/xlink" width="777.6pt" height="331.2pt" viewBox="0 0 777.6 331.2" xmlns="http://www.w3.org/2000/svg" version="1.1">
 <metadata>
  <rdf:RDF xmlns:dc="http://purl.org/dc/elements/1.1/" xmlns:cc="http://creativecommons.org/ns#" xmlns:rdf="http://www.w3.org/1999/02/22-rdf-syntax-ns#">
   <cc:Work>
    <dc:type rdf:resource="http://purl.org/dc/dcmitype/StillImage"/>
    <dc:date>2026-09-26T19:26:52.241715</dc:date>
    <dc:format>image/svg+xml</dc:format>
    <dc:creator>
     <cc:Agent>
      <dc:title>Matplotlib v3.6.3, https://matplotlib.org/</dc:title>
     </cc:Agent>
    </dc:creator>
   </cc:Work>
  </rdf:RDF>
 </metadata>
 <defs>
  <style type="text/css">*{stroke-linejoin: round; stroke-linecap: butt}</style>
 </defs>
 <g id="figure_1">
  <g id="patch_1">
   <path d="M 0 331.2 
L 777.6 331.2 
L 777.6 0 
L 0 0 
z
" style="fill: #fcfaf7"/>
  </g>
  <g id="axes_1">
   <g id="patch_2">
    <path d="M 43.59024 281.623697 
L 384.912 281.623697 
L 384.912 20.143365 
L 43.59024 20.143365 
z
" style="fill: #fcfaf7"/>
   </g>
   <g id="matplotlib.axis_1">
    <g id="xtick_1">
     <g id="line2d_1">
      <defs>
       <path id="m52422f60e1" d="M 0 0 
L 0 3.5 
" style="stroke: #2d3238; stroke-width: 0.8"/>
      </defs>
      <g>
       <use xlink:href="#m52422f60e1" x="74.47972" y="281.623697" style="fill: #2d3238; stroke: #2d3238; stroke-width: 0.8"/>
      </g>
     </g>
     <g id="text_1">
      <text style="fill: #2d3238; font: 11px 'Noto Sans CJK JP'" transform="translate(71.42722 297.37901)">0</text>
      <text style="fill: #2d3238; font: 11px 'Noto Sans CJK JP'" transform="translate(59.82222 310.405073)">边=98</text>
     </g>
    </g>
    <g id="xtick_2">
     <g id="line2d_2">
      <g>
       <use xlink:href="#m52422f60e1" x="121.070186" y="281.623697" style="fill: #2d3238; stroke: #2d3238; stroke-width: 0.8"/>
      </g>
     </g>
     <g id="text_2">
      <text style="fill: #2d3238; font: 11px 'Noto Sans CJK JP'" transform="translate(118.017686 297.37901)">1</text>
      <text style="fill: #2d3238; font: 11px 'Noto Sans CJK JP'" transform="translate(106.412686 310.405073)">边=96</text>
     </g>
    </g>
    <g id="xtick_3">
     <g id="line2d_3">
      <g>
       <use xlink:href="#m52422f60e1" x="167.660653" y="281.623697" style="fill: #2d3238; stroke: #2d3238; stroke-width: 0.8"/>
      </g>
     </g>
     <g id="text_3">
      <text style="fill: #2d3238; font: 11px 'Noto Sans CJK JP'" transform="translate(164.608153 297.37901)">2</text>
      <text style="fill: #2d3238; font: 11px 'Noto Sans CJK JP'" transform="translate(153.003153 310.405073)">边=98</text>
     </g>
    </g>
    <g id="xtick_4">
     <g id="line2d_4">
      <g>
       <use xlink:href="#m52422f60e1" x="214.25112" y="281.623697" style="fill: #2d3238; stroke: #2d3238; stroke-width: 0.8"/>
      </g>
     </g>
     <g id="text_4">
      <text style="fill: #2d3238; font: 11px 'Noto Sans CJK JP'" transform="translate(205.09362 297.37901)">246</text>
      <text style="fill: #2d3238; font: 11px 'Noto Sans CJK JP'" transform="translate(196.54112 310.405073)">边=107</text>
     </g>
    </g>
    <g id="xtick_5">
     <g id="line2d_5">
      <g>
       <use xlink:href="#m52422f60e1" x="260.841587" y="281.623697" style="fill: #2d3238; stroke: #2d3238; stroke-width: 0.8"/>
      </g>
     </g>
     <g id="text_5">
      <text style="fill: #2d3238; font: 11px 'Noto Sans CJK JP'" transform="translate(251.684087 297.37901)">256</text>
      <text style="fill: #2d3238; font: 11px 'Noto Sans CJK JP'" transform="translate(246.184087 310.405073)">边=98</text>
     </g>
    </g>
    <g id="xtick_6">
     <g id="line2d_6">
      <g>
       <use xlink:href="#m52422f60e1" x="307.432054" y="281.623697" style="fill: #2d3238; stroke: #2d3238; stroke-width: 0.8"/>
      </g>
     </g>
     <g id="text_6">
      <text style="fill: #2d3238; font: 11px 'Noto Sans CJK JP'" transform="translate(298.274554 297.37901)">306</text>
      <text style="fill: #2d3238; font: 11px 'Noto Sans CJK JP'" transform="translate(289.722054 310.405073)">边=110</text>
     </g>
    </g>
    <g id="xtick_7">
     <g id="line2d_7">
      <g>
       <use xlink:href="#m52422f60e1" x="354.02252" y="281.623697" style="fill: #2d3238; stroke: #2d3238; stroke-width: 0.8"/>
      </g>
     </g>
     <g id="text_7">
      <text style="fill: #2d3238; font: 11px 'Noto Sans CJK JP'" transform="translate(344.86502 297.37901)">352</text>
      <text style="fill: #2d3238; font: 11px 'Noto Sans CJK JP'" transform="translate(336.31252 310.405073)">边=169</text>
     </g>
    </g>
    <g id="text_8">
     <text style="fill: #2d3238; font: 11px 'Noto Sans CJK JP'; text-anchor: middle" x="214.25112" y="325.680072" transform="rotate(-0 214.25112 325.680072)">原始记录 ID / 相邻边分母</text>
    </g>
   </g>
   <g id="matplotlib.axis_2">
    <g id="ytick_1">
     <g id="line2d_8">
      <path d="M 43.59024 281.623697 
L 384.912 281.623697 
" clip-path="url(#pa9dbd0d249)" style="fill: none; stroke: #dde3e7; stroke-width: 0.6; stroke-linecap: square"/>
     </g>
     <g id="line2d_9">
      <defs>
       <path id="m88c8f14e18" d="M 0 0 
L -3.5 0 
" style="stroke: #2d3238; stroke-width: 0.8"/>
      </defs>
      <g>
       <use xlink:href="#m88c8f14e18" x="43.59024" y="281.623697" style="fill: #2d3238; stroke: #2d3238; stroke-width: 0.8"/>
      </g>
     </g>
     <g id="text_9">
      <text style="fill: #2d3238; font: 11px 'Noto Sans CJK JP'; text-anchor: end" x="36.59024" y="286.001354" transform="rotate(-0 36.59024 286.001354)">0</text>
     </g>
    </g>
    <g id="ytick_2">
     <g id="line2d_10">
      <path d="M 43.59024 248.691666 
L 384.912 248.691666 
" clip-path="url(#pa9dbd0d249)" style="fill: none; stroke: #dde3e7; stroke-width: 0.6; stroke-linecap: square"/>
     </g>
     <g id="line2d_11">
      <g>
       <use xlink:href="#m88c8f14e18" x="43.59024" y="248.691666" style="fill: #2d3238; stroke: #2d3238; stroke-width: 0.8"/>
      </g>
     </g>
     <g id="text_10">
      <text style="fill: #2d3238; font: 11px 'Noto Sans CJK JP'; text-anchor: end" x="36.59024" y="253.069322" transform="rotate(-0 36.59024 253.069322)">20</text>
     </g>
    </g>
    <g id="ytick_3">
     <g id="line2d_12">
      <path d="M 43.59024 215.759634 
L 384.912 215.759634 
" clip-path="url(#pa9dbd0d249)" style="fill: none; stroke: #dde3e7; stroke-width: 0.6; stroke-linecap: square"/>
     </g>
     <g id="line2d_13">
      <g>
       <use xlink:href="#m88c8f14e18" x="43.59024" y="215.759634" style="fill: #2d3238; stroke: #2d3238; stroke-width: 0.8"/>
      </g>
     </g>
     <g id="text_11">
      <text style="fill: #2d3238; font: 11px 'Noto Sans CJK JP'; text-anchor: end" x="36.59024" y="220.13729" transform="rotate(-0 36.59024 220.13729)">40</text>
     </g>
    </g>
    <g id="ytick_4">
     <g id="line2d_14">
      <path d="M 43.59024 182.827602 
L 384.912 182.827602 
" clip-path="url(#pa9dbd0d249)" style="fill: none; stroke: #dde3e7; stroke-width: 0.6; stroke-linecap: square"/>
     </g>
     <g id="line2d_15">
      <g>
       <use xlink:href="#m88c8f14e18" x="43.59024" y="182.827602" style="fill: #2d3238; stroke: #2d3238; stroke-width: 0.8"/>
      </g>
     </g>
     <g id="text_12">
      <text style="fill: #2d3238; font: 11px 'Noto Sans CJK JP'; text-anchor: end" x="36.59024" y="187.205258" transform="rotate(-0 36.59024 187.205258)">60</text>
     </g>
    </g>
    <g id="ytick_5">
     <g id="line2d_16">
      <path d="M 43.59024 149.89557 
L 384.912 149.89557 
" clip-path="url(#pa9dbd0d249)" style="fill: none; stroke: #dde3e7; stroke-width: 0.6; stroke-linecap: square"/>
     </g>
     <g id="line2d_17">
      <g>
       <use xlink:href="#m88c8f14e18" x="43.59024" y="149.89557" style="fill: #2d3238; stroke: #2d3238; stroke-width: 0.8"/>
      </g>
     </g>
     <g id="text_13">
      <text style="fill: #2d3238; font: 11px 'Noto Sans CJK JP'; text-anchor: end" x="36.59024" y="154.273227" transform="rotate(-0 36.59024 154.273227)">80</text>
     </g>
    </g>
    <g id="ytick_6">
     <g id="line2d_18">
      <path d="M 43.59024 116.963538 
L 384.912 116.963538 
" clip-path="url(#pa9dbd0d249)" style="fill: none; stroke: #dde3e7; stroke-width: 0.6; stroke-linecap: square"/>
     </g>
     <g id="line2d_19">
      <g>
       <use xlink:href="#m88c8f14e18" x="43.59024" y="116.963538" style="fill: #2d3238; stroke: #2d3238; stroke-width: 0.8"/>
      </g>
     </g>
     <g id="text_14">
      <text style="fill: #2d3238; font: 11px 'Noto Sans CJK JP'; text-anchor: end" x="36.59024" y="121.341195" transform="rotate(-0 36.59024 121.341195)">100</text>
     </g>
    </g>
    <g id="ytick_7">
     <g id="line2d_20">
      <path d="M 43.59024 84.031507 
L 384.912 84.031507 
" clip-path="url(#pa9dbd0d249)" style="fill: none; stroke: #dde3e7; stroke-width: 0.6; stroke-linecap: square"/>
     </g>
     <g id="line2d_21">
      <g>
       <use xlink:href="#m88c8f14e18" x="43.59024" y="84.031507" style="fill: #2d3238; stroke: #2d3238; stroke-width: 0.8"/>
      </g>
     </g>
     <g id="text_15">
      <text style="fill: #2d3238; font: 11px 'Noto Sans CJK JP'; text-anchor: end" x="36.59024" y="88.409163" transform="rotate(-0 36.59024 88.409163)">120</text>
     </g>
    </g>
    <g id="ytick_8">
     <g id="line2d_22">
      <path d="M 43.59024 51.099475 
L 384.912 51.099475 
" clip-path="url(#pa9dbd0d249)" style="fill: none; stroke: #dde3e7; stroke-width: 0.6; stroke-linecap: square"/>
     </g>
     <g id="line2d_23">
      <g>
       <use xlink:href="#m88c8f14e18" x="43.59024" y="51.099475" style="fill: #2d3238; stroke: #2d3238; stroke-width: 0.8"/>
      </g>
     </g>
     <g id="text_16">
      <text style="fill: #2d3238; font: 11px 'Noto Sans CJK JP'; text-anchor: end" x="36.59024" y="55.477131" transform="rotate(-0 36.59024 55.477131)">140</text>
     </g>
    </g>
    <g id="text_17">
     <text style="fill: #2d3238; font: 11px 'Noto Sans CJK JP'; text-anchor: middle" x="11.755553" y="150.883531" transform="rotate(-90 11.755553 150.883531)">相邻边数</text>
    </g>
   </g>
   <g id="patch_3">
    <path d="M 59.104865 281.623697 
L 74.013815 281.623697 
L 74.013815 281.623697 
L 59.104865 281.623697 
z
" clip-path="url(#pa9dbd0d249)" style="fill: #5b9fbe"/>
   </g>
   <g id="patch_4">
    <path d="M 105.695332 281.623697 
L 120.604282 281.623697 
L 120.604282 281.623697 
L 105.695332 281.623697 
z
" clip-path="url(#pa9dbd0d249)" style="fill: #5b9fbe"/>
   </g>
   <g id="patch_5">
    <path d="M 152.285799 281.623697 
L 167.194749 281.623697 
L 167.194749 281.623697 
L 152.285799 281.623697 
z
" clip-path="url(#pa9dbd0d249)" style="fill: #5b9fbe"/>
   </g>
   <g id="patch_6">
    <path d="M 198.876266 281.623697 
L 213.785215 281.623697 
L 213.785215 279.977096 
L 198.876266 279.977096 
z
" clip-path="url(#pa9dbd0d249)" style="fill: #5b9fbe"/>
   </g>
   <g id="patch_7">
    <path d="M 245.466733 281.623697 
L 260.375682 281.623697 
L 260.375682 281.623697 
L 245.466733 281.623697 
z
" clip-path="url(#pa9dbd0d249)" style="fill: #5b9fbe"/>
   </g>
   <g id="patch_8">
    <path d="M 292.0572 281.623697 
L 306.966149 281.623697 
L 306.966149 273.39069 
L 292.0572 273.39069 
z
" clip-path="url(#pa9dbd0d249)" style="fill: #5b9fbe"/>
   </g>
   <g id="patch_9">
    <path d="M 338.647666 281.623697 
L 353.556616 281.623697 
L 353.556616 90.617913 
L 338.647666 90.617913 
z
" clip-path="url(#pa9dbd0d249)" style="fill: #5b9fbe"/>
   </g>
   <g id="patch_10">
    <path d="M 74.945624 281.623697 
L 89.854574 281.623697 
L 89.854574 281.623697 
L 74.945624 281.623697 
z
" clip-path="url(#pa9dbd0d249)" style="fill: url(#h28da5a9017)"/>
   </g>
   <g id="patch_11">
    <path d="M 121.536091 281.623697 
L 136.44504 281.623697 
L 136.44504 281.623697 
L 121.536091 281.623697 
z
" clip-path="url(#pa9dbd0d249)" style="fill: url(#h28da5a9017)"/>
   </g>
   <g id="patch_12">
    <path d="M 168.126558 281.623697 
L 183.035507 281.623697 
L 183.035507 281.623697 
L 168.126558 281.623697 
z
" clip-path="url(#pa9dbd0d249)" style="fill: url(#h28da5a9017)"/>
   </g>
   <g id="patch_13">
    <path d="M 214.717025 281.623697 
L 229.625974 281.623697 
L 229.625974 279.977096 
L 214.717025 279.977096 
z
" clip-path="url(#pa9dbd0d249)" style="fill: url(#h28da5a9017)"/>
   </g>
   <g id="patch_14">
    <path d="M 261.307491 281.623697 
L 276.216441 281.623697 
L 276.216441 281.623697 
L 261.307491 281.623697 
z
" clip-path="url(#pa9dbd0d249)" style="fill: url(#h28da5a9017)"/>
   </g>
   <g id="patch_15">
    <path d="M 307.897958 281.623697 
L 322.806908 281.623697 
L 322.806908 273.39069 
L 307.897958 273.39069 
z
" clip-path="url(#pa9dbd0d249)" style="fill: url(#h28da5a9017)"/>
   </g>
   <g id="patch_16">
    <path d="M 354.488425 281.623697 
L 369.397375 281.623697 
L 369.397375 189.414008 
L 354.488425 189.414008 
z
" clip-path="url(#pa9dbd0d249)" style="fill: url(#h28da5a9017)"/>
   </g>
   <g id="patch_17">
    <path d="M 43.59024 281.623697 
L 43.59024 20.143365 
" style="fill: none; stroke: #dde3e7; stroke-width: 0.8; stroke-linejoin: miter; stroke-linecap: square"/>
   </g>
   <g id="patch_18">
    <path d="M 43.59024 281.623697 
L 384.912 281.623697 
" style="fill: none; stroke: #dde3e7; stroke-width: 0.8; stroke-linejoin: miter; stroke-linecap: square"/>
   </g>
   <g id="text_18">
    <text style="fill: #2d3238; font: 8px 'Noto Sans CJK JP'; text-anchor: middle" x="66.55934" y="277.791198" transform="rotate(-0 66.55934 277.791198)">0</text>
   </g>
   <g id="text_19">
    <text style="fill: #2d3238; font: 8px 'Noto Sans CJK JP'; text-anchor: middle" x="113.149807" y="277.791198" transform="rotate(-0 113.149807 277.791198)">0</text>
   </g>
   <g id="text_20">
    <text style="fill: #2d3238; font: 8px 'Noto Sans CJK JP'; text-anchor: middle" x="159.740274" y="277.791198" transform="rotate(-0 159.740274 277.791198)">0</text>
   </g>
   <g id="text_21">
    <text style="fill: #2d3238; font: 8px 'Noto Sans CJK JP'; text-anchor: middle" x="206.330741" y="276.144596" transform="rotate(-0 206.330741 276.144596)">1</text>
   </g>
   <g id="text_22">
    <text style="fill: #2d3238; font: 8px 'Noto Sans CJK JP'; text-anchor: middle" x="252.921207" y="277.791198" transform="rotate(-0 252.921207 277.791198)">0</text>
   </g>
   <g id="text_23">
    <text style="fill: #2d3238; font: 8px 'Noto Sans CJK JP'; text-anchor: middle" x="299.511674" y="269.55819" transform="rotate(-0 299.511674 269.55819)">5</text>
   </g>
   <g id="text_24">
    <text style="fill: #2d3238; font: 8px 'Noto Sans CJK JP'; text-anchor: middle" x="346.102141" y="86.785413" transform="rotate(-0 346.102141 86.785413)">116</text>
   </g>
   <g id="text_25">
    <text style="fill: #2d3238; font: 8px 'Noto Sans CJK JP'; text-anchor: middle" x="82.400099" y="277.791198" transform="rotate(-0 82.400099 277.791198)">0</text>
   </g>
   <g id="text_26">
    <text style="fill: #2d3238; font: 8px 'Noto Sans CJK JP'; text-anchor: middle" x="128.990566" y="277.791198" transform="rotate(-0 128.990566 277.791198)">0</text>
   </g>
   <g id="text_27">
    <text style="fill: #2d3238; font: 8px 'Noto Sans CJK JP'; text-anchor: middle" x="175.581033" y="277.791198" transform="rotate(-0 175.581033 277.791198)">0</text>
   </g>
   <g id="text_28">
    <text style="fill: #2d3238; font: 8px 'Noto Sans CJK JP'; text-anchor: middle" x="222.171499" y="276.144596" transform="rotate(-0 222.171499 276.144596)">1</text>
   </g>
   <g id="text_29">
    <text style="fill: #2d3238; font: 8px 'Noto Sans CJK JP'; text-anchor: middle" x="268.761966" y="277.791198" transform="rotate(-0 268.761966 277.791198)">0</text>
   </g>
   <g id="text_30">
    <text style="fill: #2d3238; font: 8px 'Noto Sans CJK JP'; text-anchor: middle" x="315.352433" y="269.55819" transform="rotate(-0 315.352433 269.55819)">5</text>
   </g>
   <g id="text_31">
    <text style="fill: #2d3238; font: 8px 'Noto Sans CJK JP'; text-anchor: middle" x="361.9429" y="185.581508" transform="rotate(-0 361.9429 185.581508)">56</text>
   </g>
   <g id="text_32">
    <text style="fill: #2d3238; font: 14px 'Noto Sans CJK JP'; text-anchor: start" x="43.59024" y="14.143365" transform="rotate(-0 43.59024 14.143365)">时间可计算性</text>
   </g>
   <g id="legend_1">
    <g id="patch_19">
     <path d="M 52.59024 37.10274 
L 72.59024 37.10274 
L 72.59024 30.10274 
L 52.59024 30.10274 
z
" style="fill: #5b9fbe"/>
    </g>
    <g id="text_33">
     <text style="fill: #2d3238; font: 10px 'Noto Sans CJK JP'; text-anchor: start" x="80.59024" y="37.10274" transform="rotate(-0 80.59024 37.10274)">零时间差</text>
    </g>
    <g id="patch_20">
     <path d="M 52.59024 52.35274 
L 72.59024 52.35274 
L 72.59024 45.35274 
L 52.59024 45.35274 
z
" style="fill: url(#h28da5a9017)"/>
    </g>
    <g id="text_34">
     <text style="fill: #2d3238; font: 10px 'Noto Sans CJK JP'; text-anchor: start" x="80.59024" y="52.35274" transform="rotate(-0 80.59024 52.35274)">同时间、不同位置</text>
    </g>
   </g>
  </g>
  <g id="axes_2">
   <g id="patch_21">
    <path d="M 433.278 281.623697 
L 774.59976 281.623697 
L 774.59976 20.143365 
L 433.278 20.143365 
z
" style="fill: #fcfaf7"/>
   </g>
   <g id="matplotlib.axis_3">
    <g id="xtick_8">
     <g id="line2d_24">
      <g>
       <use xlink:href="#m52422f60e1" x="464.16748" y="281.623697" style="fill: #2d3238; stroke: #2d3238; stroke-width: 0.8"/>
      </g>
     </g>
     <g id="text_35">
      <text style="fill: #2d3238; font: 11px 'Noto Sans CJK JP'" transform="translate(461.11498 297.37901)">0</text>
      <text style="fill: #2d3238; font: 11px 'Noto Sans CJK JP'" transform="translate(449.50998 310.405073)">边=98</text>
     </g>
    </g>
    <g id="xtick_9">
     <g id="line2d_25">
      <g>
       <use xlink:href="#m52422f60e1" x="510.757946" y="281.623697" style="fill: #2d3238; stroke: #2d3238; stroke-width: 0.8"/>
      </g>
     </g>
     <g id="text_36">
      <text style="fill: #2d3238; font: 11px 'Noto Sans CJK JP'" transform="translate(507.705446 297.37901)">1</text>
      <text style="fill: #2d3238; font: 11px 'Noto Sans CJK JP'" transform="translate(496.100446 310.405073)">边=96</text>
     </g>
    </g>
    <g id="xtick_10">
     <g id="line2d_26">
      <g>
       <use xlink:href="#m52422f60e1" x="557.348413" y="281.623697" style="fill: #2d3238; stroke: #2d3238; stroke-width: 0.8"/>
      </g>
     </g>
     <g id="text_37">
      <text style="fill: #2d3238; font: 11px 'Noto Sans CJK JP'" transform="translate(554.295913 297.37901)">2</text>
      <text style="fill: #2d3238; font: 11px 'Noto Sans CJK JP'" transform="translate(542.690913 310.405073)">边=98</text>
     </g>
    </g>
    <g id="xtick_11">
     <g id="line2d_27">
      <g>
       <use xlink:href="#m52422f60e1" x="603.93888" y="281.623697" style="fill: #2d3238; stroke: #2d3238; stroke-width: 0.8"/>
      </g>
     </g>
     <g id="text_38">
      <text style="fill: #2d3238; font: 11px 'Noto Sans CJK JP'" transform="translate(594.78138 297.37901)">246</text>
      <text style="fill: #2d3238; font: 11px 'Noto Sans CJK JP'" transform="translate(586.22888 310.405073)">边=107</text>
     </g>
    </g>
    <g id="xtick_12">
     <g id="line2d_28">
      <g>
       <use xlink:href="#m52422f60e1" x="650.529347" y="281.623697" style="fill: #2d3238; stroke: #2d3238; stroke-width: 0.8"/>
      </g>
     </g>
     <g id="text_39">
      <text style="fill: #2d3238; font: 11px 'Noto Sans CJK JP'" transform="translate(641.371847 297.37901)">256</text>
      <text style="fill: #2d3238; font: 11px 'Noto Sans CJK JP'" transform="translate(635.871847 310.405073)">边=98</text>
     </g>
    </g>
    <g id="xtick_13">
     <g id="line2d_29">
      <g>
       <use xlink:href="#m52422f60e1" x="697.119814" y="281.623697" style="fill: #2d3238; stroke: #2d3238; stroke-width: 0.8"/>
      </g>
     </g>
     <g id="text_40">
      <text style="fill: #2d3238; font: 11px 'Noto Sans CJK JP'" transform="translate(687.962314 297.37901)">306</text>
      <text style="fill: #2d3238; font: 11px 'Noto Sans CJK JP'" transform="translate(679.409814 310.405073)">边=110</text>
     </g>
    </g>
    <g id="xtick_14">
     <g id="line2d_30">
      <g>
       <use xlink:href="#m52422f60e1" x="743.71028" y="281.623697" style="fill: #2d3238; stroke: #2d3238; stroke-width: 0.8"/>
      </g>
     </g>
     <g id="text_41">
      <text style="fill: #2d3238; font: 11px 'Noto Sans CJK JP'" transform="translate(734.55278 297.37901)">352</text>
      <text style="fill: #2d3238; font: 11px 'Noto Sans CJK JP'" transform="translate(726.00028 310.405073)">边=169</text>
     </g>
    </g>
    <g id="text_42">
     <text style="fill: #2d3238; font: 11px 'Noto Sans CJK JP'; text-anchor: middle" x="603.93888" y="325.680072" transform="rotate(-0 603.93888 325.680072)">原始记录 ID / 相邻边分母</text>
    </g>
   </g>
   <g id="matplotlib.axis_4">
    <g id="ytick_9">
     <g id="line2d_31">
      <path d="M 433.278 281.623697 
L 774.59976 281.623697 
" clip-path="url(#pb2e60a23f8)" style="fill: none; stroke: #dde3e7; stroke-width: 0.6; stroke-linecap: square"/>
     </g>
     <g id="line2d_32">
      <g>
       <use xlink:href="#m88c8f14e18" x="433.278" y="281.623697" style="fill: #2d3238; stroke: #2d3238; stroke-width: 0.8"/>
      </g>
     </g>
     <g id="text_43">
      <text style="fill: #2d3238; font: 11px 'Noto Sans CJK JP'; text-anchor: end" x="426.278" y="286.001354" transform="rotate(-0 426.278 286.001354)">0</text>
     </g>
    </g>
    <g id="ytick_10">
     <g id="line2d_33">
      <path d="M 433.278 235.990132 
L 774.59976 235.990132 
" clip-path="url(#pb2e60a23f8)" style="fill: none; stroke: #dde3e7; stroke-width: 0.6; stroke-linecap: square"/>
     </g>
     <g id="line2d_34">
      <g>
       <use xlink:href="#m88c8f14e18" x="433.278" y="235.990132" style="fill: #2d3238; stroke: #2d3238; stroke-width: 0.8"/>
      </g>
     </g>
     <g id="text_44">
      <text style="fill: #2d3238; font: 11px 'Noto Sans CJK JP'; text-anchor: end" x="426.278" y="240.367788" transform="rotate(-0 426.278 240.367788)">20</text>
     </g>
    </g>
    <g id="ytick_11">
     <g id="line2d_35">
      <path d="M 433.278 190.356566 
L 774.59976 190.356566 
" clip-path="url(#pb2e60a23f8)" style="fill: none; stroke: #dde3e7; stroke-width: 0.6; stroke-linecap: square"/>
     </g>
     <g id="line2d_36">
      <g>
       <use xlink:href="#m88c8f14e18" x="433.278" y="190.356566" style="fill: #2d3238; stroke: #2d3238; stroke-width: 0.8"/>
      </g>
     </g>
     <g id="text_45">
      <text style="fill: #2d3238; font: 11px 'Noto Sans CJK JP'; text-anchor: end" x="426.278" y="194.734222" transform="rotate(-0 426.278 194.734222)">40</text>
     </g>
    </g>
    <g id="ytick_12">
     <g id="line2d_37">
      <path d="M 433.278 144.723 
L 774.59976 144.723 
" clip-path="url(#pb2e60a23f8)" style="fill: none; stroke: #dde3e7; stroke-width: 0.6; stroke-linecap: square"/>
     </g>
     <g id="line2d_38">
      <g>
       <use xlink:href="#m88c8f14e18" x="433.278" y="144.723" style="fill: #2d3238; stroke: #2d3238; stroke-width: 0.8"/>
      </g>
     </g>
     <g id="text_46">
      <text style="fill: #2d3238; font: 11px 'Noto Sans CJK JP'; text-anchor: end" x="426.278" y="149.100656" transform="rotate(-0 426.278 149.100656)">60</text>
     </g>
    </g>
    <g id="ytick_13">
     <g id="line2d_39">
      <path d="M 433.278 99.089434 
L 774.59976 99.089434 
" clip-path="url(#pb2e60a23f8)" style="fill: none; stroke: #dde3e7; stroke-width: 0.6; stroke-linecap: square"/>
     </g>
     <g id="line2d_40">
      <g>
       <use xlink:href="#m88c8f14e18" x="433.278" y="99.089434" style="fill: #2d3238; stroke: #2d3238; stroke-width: 0.8"/>
      </g>
     </g>
     <g id="text_47">
      <text style="fill: #2d3238; font: 11px 'Noto Sans CJK JP'; text-anchor: end" x="426.278" y="103.46709" transform="rotate(-0 426.278 103.46709)">80</text>
     </g>
    </g>
    <g id="ytick_14">
     <g id="line2d_41">
      <path d="M 433.278 53.455868 
L 774.59976 53.455868 
" clip-path="url(#pb2e60a23f8)" style="fill: none; stroke: #dde3e7; stroke-width: 0.6; stroke-linecap: square"/>
     </g>
     <g id="line2d_42">
      <g>
       <use xlink:href="#m88c8f14e18" x="433.278" y="53.455868" style="fill: #2d3238; stroke: #2d3238; stroke-width: 0.8"/>
      </g>
     </g>
     <g id="text_48">
      <text style="fill: #2d3238; font: 11px 'Noto Sans CJK JP'; text-anchor: end" x="426.278" y="57.833524" transform="rotate(-0 426.278 57.833524)">100</text>
     </g>
    </g>
    <g id="text_49">
     <text style="fill: #2d3238; font: 11px 'Noto Sans CJK JP'; text-anchor: middle" x="401.443312" y="150.883531" transform="rotate(-90 401.443312 150.883531)">相邻边数</text>
    </g>
   </g>
   <g id="patch_22">
    <path d="M 448.792625 281.623697 
L 463.701575 281.623697 
L 463.701575 103.652791 
L 448.792625 103.652791 
z
" clip-path="url(#pb2e60a23f8)" style="fill: #8177a8"/>
   </g>
   <g id="patch_23">
    <path d="M 495.383092 281.623697 
L 510.292042 281.623697 
L 510.292042 108.216147 
L 495.383092 108.216147 
z
" clip-path="url(#pb2e60a23f8)" style="fill: #8177a8"/>
   </g>
   <g id="patch_24">
    <path d="M 541.973559 281.623697 
L 556.882509 281.623697 
L 556.882509 94.526077 
L 541.973559 94.526077 
z
" clip-path="url(#pb2e60a23f8)" style="fill: #8177a8"/>
   </g>
   <g id="patch_25">
    <path d="M 588.564026 281.623697 
L 603.472975 281.623697 
L 603.472975 281.623697 
L 588.564026 281.623697 
z
" clip-path="url(#pb2e60a23f8)" style="fill: #8177a8"/>
   </g>
   <g id="patch_26">
    <path d="M 635.154493 281.623697 
L 650.063442 281.623697 
L 650.063442 265.651949 
L 635.154493 265.651949 
z
" clip-path="url(#pb2e60a23f8)" style="fill: #8177a8"/>
   </g>
   <g id="patch_27">
    <path d="M 681.74496 281.623697 
L 696.653909 281.623697 
L 696.653909 272.496984 
L 681.74496 272.496984 
z
" clip-path="url(#pb2e60a23f8)" style="fill: #8177a8"/>
   </g>
   <g id="patch_28">
    <path d="M 728.335426 281.623697 
L 743.244376 281.623697 
L 743.244376 108.216147 
L 728.335426 108.216147 
z
" clip-path="url(#pb2e60a23f8)" style="fill: #8177a8"/>
   </g>
   <g id="patch_29">
    <path d="M 464.633384 281.623697 
L 479.542334 281.623697 
L 479.542334 281.623697 
L 464.633384 281.623697 
z
" clip-path="url(#pb2e60a23f8)" style="fill: url(#h4a40786d7b)"/>
   </g>
   <g id="patch_30">
    <path d="M 511.223851 281.623697 
L 526.1328 281.623697 
L 526.1328 281.623697 
L 511.223851 281.623697 
z
" clip-path="url(#pb2e60a23f8)" style="fill: url(#h4a40786d7b)"/>
   </g>
   <g id="patch_31">
    <path d="M 557.814318 281.623697 
L 572.723267 281.623697 
L 572.723267 281.623697 
L 557.814318 281.623697 
z
" clip-path="url(#pb2e60a23f8)" style="fill: url(#h4a40786d7b)"/>
   </g>
   <g id="patch_32">
    <path d="M 604.404785 281.623697 
L 619.313734 281.623697 
L 619.313734 281.623697 
L 604.404785 281.623697 
z
" clip-path="url(#pb2e60a23f8)" style="fill: url(#h4a40786d7b)"/>
   </g>
   <g id="patch_33">
    <path d="M 650.995251 281.623697 
L 665.904201 281.623697 
L 665.904201 281.623697 
L 650.995251 281.623697 
z
" clip-path="url(#pb2e60a23f8)" style="fill: url(#h4a40786d7b)"/>
   </g>
   <g id="patch_34">
    <path d="M 697.585718 281.623697 
L 712.494668 281.623697 
L 712.494668 272.496984 
L 697.585718 272.496984 
z
" clip-path="url(#pb2e60a23f8)" style="fill: url(#h4a40786d7b)"/>
   </g>
   <g id="patch_35">
    <path d="M 744.176185 281.623697 
L 759.085135 281.623697 
L 759.085135 279.342019 
L 744.176185 279.342019 
z
" clip-path="url(#pb2e60a23f8)" style="fill: url(#h4a40786d7b)"/>
   </g>
   <g id="patch_36">
    <path d="M 433.278 281.623697 
L 433.278 20.143365 
" style="fill: none; stroke: #dde3e7; stroke-width: 0.8; stroke-linejoin: miter; stroke-linecap: square"/>
   </g>
   <g id="patch_37">
    <path d="M 433.278 281.623697 
L 774.59976 281.623697 
" style="fill: none; stroke: #dde3e7; stroke-width: 0.8; stroke-linejoin: miter; stroke-linecap: square"/>
   </g>
   <g id="text_50">
    <text style="fill: #2d3238; font: 8px 'Noto Sans CJK JP'; text-anchor: middle" x="456.2471" y="99.820291" transform="rotate(-0 456.2471 99.820291)">78</text>
   </g>
   <g id="text_51">
    <text style="fill: #2d3238; font: 8px 'Noto Sans CJK JP'; text-anchor: middle" x="502.837567" y="104.383647" transform="rotate(-0 502.837567 104.383647)">76</text>
   </g>
   <g id="text_52">
    <text style="fill: #2d3238; font: 8px 'Noto Sans CJK JP'; text-anchor: middle" x="549.428034" y="90.693577" transform="rotate(-0 549.428034 90.693577)">82</text>
   </g>
   <g id="text_53">
    <text style="fill: #2d3238; font: 8px 'Noto Sans CJK JP'; text-anchor: middle" x="596.018501" y="277.791198" transform="rotate(-0 596.018501 277.791198)">0</text>
   </g>
   <g id="text_54">
    <text style="fill: #2d3238; font: 8px 'Noto Sans CJK JP'; text-anchor: middle" x="642.608967" y="261.819449" transform="rotate(-0 642.608967 261.819449)">7</text>
   </g>
   <g id="text_55">
    <text style="fill: #2d3238; font: 8px 'Noto Sans CJK JP'; text-anchor: middle" x="689.199434" y="268.664484" transform="rotate(-0 689.199434 268.664484)">4</text>
   </g>
   <g id="text_56">
    <text style="fill: #2d3238; font: 8px 'Noto Sans CJK JP'; text-anchor: middle" x="735.789901" y="104.383647" transform="rotate(-0 735.789901 104.383647)">76</text>
   </g>
   <g id="text_57">
    <text style="fill: #2d3238; font: 8px 'Noto Sans CJK JP'; text-anchor: middle" x="472.087859" y="277.791198" transform="rotate(-0 472.087859 277.791198)">0</text>
   </g>
   <g id="text_58">
    <text style="fill: #2d3238; font: 8px 'Noto Sans CJK JP'; text-anchor: middle" x="518.678326" y="277.791198" transform="rotate(-0 518.678326 277.791198)">0</text>
   </g>
   <g id="text_59">
    <text style="fill: #2d3238; font: 8px 'Noto Sans CJK JP'; text-anchor: middle" x="565.268793" y="277.791198" transform="rotate(-0 565.268793 277.791198)">0</text>
   </g>
   <g id="text_60">
    <text style="fill: #2d3238; font: 8px 'Noto Sans CJK JP'; text-anchor: middle" x="611.859259" y="277.791198" transform="rotate(-0 611.859259 277.791198)">0</text>
   </g>
   <g id="text_61">
    <text style="fill: #2d3238; font: 8px 'Noto Sans CJK JP'; text-anchor: middle" x="658.449726" y="277.791198" transform="rotate(-0 658.449726 277.791198)">0</text>
   </g>
   <g id="text_62">
    <text style="fill: #2d3238; font: 8px 'Noto Sans CJK JP'; text-anchor: middle" x="705.040193" y="268.664484" transform="rotate(-0 705.040193 268.664484)">4</text>
   </g>
   <g id="text_63">
    <text style="fill: #2d3238; font: 8px 'Noto Sans CJK JP'; text-anchor: middle" x="751.63066" y="275.509519" transform="rotate(-0 751.63066 275.509519)">1</text>
   </g>
   <g id="text_64">
    <text style="fill: #2d3238; font: 14px 'Noto Sans CJK JP'; text-anchor: start" x="433.278" y="14.143365" transform="rotate(-0 433.278 14.143365)">重复位置与时间间隔</text>
   </g>
   <g id="legend_2">
    <g id="patch_38">
     <path d="M 442.278 37.10274 
L 462.278 37.10274 
L 462.278 30.10274 
L 442.278 30.10274 
z
" style="fill: #8177a8"/>
    </g>
    <g id="text_65">
     <text style="fill: #2d3238; font: 10px 'Noto Sans CJK JP'; text-anchor: start" x="470.278" y="37.10274" transform="rotate(-0 470.278 37.10274)">相邻位置相同</text>
    </g>
    <g id="patch_39">
     <path d="M 442.278 52.35274 
L 462.278 52.35274 
L 462.278 45.35274 
L 442.278 45.35274 
z
" style="fill: url(#h4a40786d7b)"/>
    </g>
    <g id="text_66">
     <text style="fill: #2d3238; font: 10px 'Noto Sans CJK JP'; text-anchor: start" x="470.278" y="52.35274" transform="rotate(-0 470.278 52.35274)">时间差 &gt; 30 秒</text>
    </g>
   </g>
  </g>
 </g>
 <defs>
  <clipPath id="pa9dbd0d249">
   <rect x="43.59024" y="20.143365" width="341.32176" height="261.480333"/>
  </clipPath>
  <clipPath id="pb2e60a23f8">
   <rect x="433.278" y="20.143365" width="341.32176" height="261.480333"/>
  </clipPath>
 </defs>
 <defs>
  <pattern id="h28da5a9017" patternUnits="userSpaceOnUse" x="0" y="0" width="72" height="72">
   <rect x="0" y="0" width="73" height="73" fill="#b97589"/>
   <path d="M -36 36 
L 36 -36 
M -30 42 
L 42 -30 
M -24 48 
L 48 -24 
M -18 54 
L 54 -18 
M -12 60 
L 60 -12 
M -6 66 
L 66 -6 
M 0 72 
L 72 0 
M 6 78 
L 78 6 
M 12 84 
L 84 12 
M 18 90 
L 90 18 
M 24 96 
L 96 24 
M 30 102 
L 102 30 
M 36 108 
L 108 36 
" style="fill: #000000; stroke: #000000; stroke-width: 1.0; stroke-linecap: butt; stroke-linejoin: miter"/>
  </pattern>
  <pattern id="h4a40786d7b" patternUnits="userSpaceOnUse" x="0" y="0" width="72" height="72">
   <rect x="0" y="0" width="73" height="73" fill="#d49757"/>
   <path d="M -36 36 
L 36 -36 
M -30 42 
L 42 -30 
M -24 48 
L 48 -24 
M -18 54 
L 54 -18 
M -12 60 
L 60 -12 
M -6 66 
L 66 -6 
M 0 72 
L 72 0 
M 6 78 
L 78 6 
M 12 84 
L 84 12 
M 18 90 
L 90 18 
M 24 96 
L 96 24 
M 30 102 
L 102 30 
M 36 108 
L 108 36 
" style="fill: #000000; stroke: #000000; stroke-width: 1.0; stroke-linecap: butt; stroke-linejoin: miter"/>
  </pattern>
 </defs>
</svg>
