<?xml version="1.0" encoding="utf-8" standalone="no"?>
<!DOCTYPE svg PUBLIC "-//W3C//DTD SVG 1.1//EN"
  "http://www.w3.org/Graphics/SVG/1.1/DTD/svg11.dtd">
<svg xmlns:xlink="http://www.w3.org/1999/xlink" width="720pt" height="324pt" viewBox="0 0 720 324" xmlns="http://www.w3.org/2000/svg" version="1.1">
 <metadata>
  <rdf:RDF xmlns:dc="http://purl.org/dc/elements/1.1/" xmlns:cc="http://creativecommons.org/ns#" xmlns:rdf="http://www.w3.org/1999/02/22-rdf-syntax-ns#">
   <cc:Work>
    <dc:type rdf:resource="http://purl.org/dc/dcmitype/StillImage"/>
    <dc:date>2026-09-27T04:39:28.798985</dc:date>
    <dc:format>image/svg+xml</dc:format>
    <dc:creator>
     <cc:Agent>
      <dc:title>Matplotlib v3.6.3, https://matplotlib.org/</dc:title>
     </cc:Agent>
    </dc:creator>
   </cc:Work>
  </rdf:RDF>
 </metadata>
 <defs>
  <style type="text/css">*{stroke-linejoin: round; stroke-linecap: butt}</style>
 </defs>
 <g id="figure_1">
  <g id="patch_1">
   <path d="M 0 324 
L 720 324 
L 720 0 
L 0 0 
z
" style="fill: #fcfaf7"/>
  </g>
  <g id="axes_1">
   <g id="patch_2">
    <path d="M 38.451646 270.866947 
L 358.220547 270.866947 
L 358.220547 47.346345 
L 38.451646 47.346345 
z
" style="fill: #fffdfc"/>
   </g>
   <g id="PathCollection_1">
    <defs>
     <path id="me606e1d97a" d="M 0 1.581139 
C 0.419323 1.581139 0.821528 1.41454 1.118034 1.118034 
C 1.41454 0.821528 1.581139 0.419323 1.581139 0 
C 1.581139 -0.419323 1.41454 -0.821528 1.118034 -1.118034 
C 0.821528 -1.41454 0.419323 -1.581139 0 -1.581139 
C -0.419323 -1.581139 -0.821528 -1.41454 -1.118034 -1.118034 
C -1.41454 -0.821528 -1.581139 -0.419323 -1.581139 0 
C -1.581139 0.419323 -1.41454 0.821528 -1.118034 1.118034 
C -0.821528 1.41454 -0.419323 1.581139 0 1.581139 
z
" style="stroke: #70757a; stroke-opacity: 0.45"/>
    </defs>
    <g clip-path="url(#p9852d05117)">
     <use xlink:href="#me606e1d97a" x="52.986596" y="159.106646" style="fill: #70757a; fill-opacity: 0.45; stroke: #70757a; stroke-opacity: 0.45"/>
     <use xlink:href="#me606e1d97a" x="343.685597" y="159.106646" style="fill: #70757a; fill-opacity: 0.45; stroke: #70757a; stroke-opacity: 0.45"/>
     <use xlink:href="#me606e1d97a" x="342.235727" y="159.106646" style="fill: #70757a; fill-opacity: 0.45; stroke: #70757a; stroke-opacity: 0.45"/>
    </g>
   </g>
   <g id="matplotlib.axis_1">
    <g id="xtick_1">
     <g id="line2d_1">
      <defs>
       <path id="m9e2b6f2d7d" d="M 0 0 
L 0 3.5 
" style="stroke: #2d3238; stroke-width: 0.8"/>
      </defs>
      <g>
       <use xlink:href="#m9e2b6f2d7d" x="52.986596" y="270.866947" style="fill: #2d3238; stroke: #2d3238; stroke-width: 0.8"/>
      </g>
     </g>
     <g id="text_1">
      <text style="fill: #2d3238; font: 7px 'DejaVu Sans'; text-anchor: middle" x="52.986596" y="283.185854" transform="rotate(-0 52.986596 283.185854)">0</text>
     </g>
    </g>
    <g id="xtick_2">
     <g id="line2d_2">
      <g>
       <use xlink:href="#m9e2b6f2d7d" x="161.726871" y="270.866947" style="fill: #2d3238; stroke: #2d3238; stroke-width: 0.8"/>
      </g>
     </g>
     <g id="text_2">
      <text style="fill: #2d3238; font: 7px 'DejaVu Sans'; text-anchor: middle" x="161.726871" y="283.185854" transform="rotate(-0 161.726871 283.185854)">150</text>
     </g>
    </g>
    <g id="xtick_3">
     <g id="line2d_3">
      <g>
       <use xlink:href="#m9e2b6f2d7d" x="270.467145" y="270.866947" style="fill: #2d3238; stroke: #2d3238; stroke-width: 0.8"/>
      </g>
     </g>
     <g id="text_3">
      <text style="fill: #2d3238; font: 7px 'DejaVu Sans'; text-anchor: middle" x="270.467145" y="283.185854" transform="rotate(-0 270.467145 283.185854)">300</text>
     </g>
    </g>
    <g id="text_4">
     <text style="fill: #2d3238; font: 10px 'DejaVu Sans'; text-anchor: middle" x="198.336097" y="296.240072" transform="rotate(-0 198.336097 296.240072)">East (working m)</text>
    </g>
   </g>
   <g id="matplotlib.axis_2">
    <g id="ytick_1">
     <g id="line2d_4">
      <defs>
       <path id="ma7a805ba48" d="M 0 0 
L -3.5 0 
" style="stroke: #2d3238; stroke-width: 0.8"/>
      </defs>
      <g>
       <use xlink:href="#ma7a805ba48" x="38.451646" y="217.101459" style="fill: #2d3238; stroke: #2d3238; stroke-width: 0.8"/>
      </g>
     </g>
     <g id="text_5">
      <text style="fill: #2d3238; font: 7px 'DejaVu Sans'; text-anchor: end" x="31.451646" y="219.760912" transform="rotate(-0 31.451646 219.760912)">−80</text>
     </g>
    </g>
    <g id="ytick_2">
     <g id="line2d_5">
      <g>
       <use xlink:href="#ma7a805ba48" x="38.451646" y="159.106646" style="fill: #2d3238; stroke: #2d3238; stroke-width: 0.8"/>
      </g>
     </g>
     <g id="text_6">
      <text style="fill: #2d3238; font: 7px 'DejaVu Sans'; text-anchor: end" x="31.451646" y="161.766099" transform="rotate(-0 31.451646 161.766099)">0</text>
     </g>
    </g>
    <g id="ytick_3">
     <g id="line2d_6">
      <g>
       <use xlink:href="#ma7a805ba48" x="38.451646" y="101.111833" style="fill: #2d3238; stroke: #2d3238; stroke-width: 0.8"/>
      </g>
     </g>
     <g id="text_7">
      <text style="fill: #2d3238; font: 7px 'DejaVu Sans'; text-anchor: end" x="31.451646" y="103.771286" transform="rotate(-0 31.451646 103.771286)">80</text>
     </g>
    </g>
    <g id="text_8">
     <text style="fill: #2d3238; font: 10px 'DejaVu Sans'; text-anchor: middle" x="10.598677" y="159.106646" transform="rotate(-90 10.598677 159.106646)">North (working m)</text>
    </g>
   </g>
   <g id="line2d_7">
    <path d="M 52.986596 159.106646 
L 342.235727 159.106646 
" clip-path="url(#p9852d05117)" style="fill: none; stroke: #5b9fbe; stroke-width: 1.7; stroke-linecap: square"/>
    <defs>
     <path id="mcf0f27fb37" d="M 0 1.5 
C 0.397805 1.5 0.77937 1.341951 1.06066 1.06066 
C 1.341951 0.77937 1.5 0.397805 1.5 0 
C 1.5 -0.397805 1.341951 -0.77937 1.06066 -1.06066 
C 0.77937 -1.341951 0.397805 -1.5 0 -1.5 
C -0.397805 -1.5 -0.77937 -1.341951 -1.06066 -1.06066 
C -1.341951 -0.77937 -1.5 -0.397805 -1.5 0 
C -1.5 0.397805 -1.341951 0.77937 -1.06066 1.06066 
C -0.77937 1.341951 -0.397805 1.5 0 1.5 
z
" style="stroke: #5b9fbe"/>
    </defs>
    <g clip-path="url(#p9852d05117)">
     <use xlink:href="#mcf0f27fb37" x="52.986596" y="159.106646" style="fill: #5b9fbe; stroke: #5b9fbe"/>
     <use xlink:href="#mcf0f27fb37" x="342.235727" y="159.106646" style="fill: #5b9fbe; stroke: #5b9fbe"/>
    </g>
   </g>
   <g id="patch_3">
    <path d="M 38.451646 270.866947 
L 38.451646 47.346345 
" style="fill: none; stroke: #70757a; stroke-width: 0.8; stroke-linejoin: miter; stroke-linecap: square"/>
   </g>
   <g id="patch_4">
    <path d="M 38.451646 270.866947 
L 358.220547 270.866947 
" style="fill: none; stroke: #70757a; stroke-width: 0.8; stroke-linejoin: miter; stroke-linecap: square"/>
   </g>
   <g id="patch_5">
    <path d="M 57.473517 152.427974 
Q 55.787635 154.937368 54.101754 157.446761 
" style="fill: none; stroke: #70757a; stroke-width: 0.5; stroke-linecap: round"/>
   </g>
   <g id="text_9">
    <text style="fill: #2d3238; font: 8px 'DejaVu Sans'; text-anchor: start" x="59.986596" y="147.106646" transform="rotate(-0 59.986596 147.106646)">0</text>
   </g>
   <g id="patch_6">
    <path d="M 348.172517 152.427974 
Q 346.486636 154.937368 344.800754 157.446761 
" style="fill: none; stroke: #70757a; stroke-width: 0.5; stroke-linecap: round"/>
   </g>
   <g id="text_10">
    <text style="fill: #2d3238; font: 8px 'DejaVu Sans'; text-anchor: start" x="350.685597" y="147.106646" transform="rotate(-0 350.685597 147.106646)">1</text>
   </g>
   <g id="patch_7">
    <path d="M 346.581094 165.38569 
Q 344.978103 163.069373 343.375112 160.753056 
" style="fill: none; stroke: #70757a; stroke-width: 0.5; stroke-linecap: round"/>
   </g>
   <g id="text_11">
    <text style="fill: #2d3238; font: 8px 'DejaVu Sans'; text-anchor: start" x="349.235727" y="175.106646" transform="rotate(-0 349.235727 175.106646)">2</text>
   </g>
   <g id="text_12">
    <g id="patch_8">
     <path d="M 44.044713 70.264875 
L 158.683463 70.264875 
L 158.683463 54.522375 
L 44.044713 54.522375 
z
" style="fill: #fcfaf7; opacity: 0.9"/>
    </g>
    <text style="fill: #2d3238; font: 8px 'DejaVu Sans'; text-anchor: start" x="48.044713" y="64.601125" transform="rotate(-0 48.044713 64.601125)">Original break crossings: 1</text>
   </g>
   <g id="text_13">
    <text style="fill: #2d3238; font: 10px 'DejaVu Sans'" transform="translate(38.451646 30.148532)">Synthetic: P precedes S</text>
    <text style="fill: #2d3238; font: 10px 'DejaVu Sans'" transform="translate(38.451646 41.346345)">original distance-break information</text>
   </g>
  </g>
  <g id="axes_2">
   <g id="patch_9">
    <path d="M 397.230859 270.866947 
L 716.99976 270.866947 
L 716.99976 47.346345 
L 397.230859 47.346345 
z
" style="fill: #fffdfc"/>
   </g>
   <g id="PathCollection_2">
    <g clip-path="url(#pfdd6912477)">
     <use xlink:href="#me606e1d97a" x="531.514497" y="261.509897" style="fill: #70757a; fill-opacity: 0.45; stroke: #70757a; stroke-opacity: 0.45"/>
     <use xlink:href="#me606e1d97a" x="531.514497" y="210.308272" style="fill: #70757a; fill-opacity: 0.45; stroke: #70757a; stroke-opacity: 0.45"/>
     <use xlink:href="#me606e1d97a" x="531.514497" y="159.106646" style="fill: #70757a; fill-opacity: 0.45; stroke: #70757a; stroke-opacity: 0.45"/>
     <use xlink:href="#me606e1d97a" x="582.716122" y="107.905021" style="fill: #70757a; fill-opacity: 0.45; stroke: #70757a; stroke-opacity: 0.45"/>
     <use xlink:href="#me606e1d97a" x="582.716122" y="56.703395" style="fill: #70757a; fill-opacity: 0.45; stroke: #70757a; stroke-opacity: 0.45"/>
    </g>
   </g>
   <g id="matplotlib.axis_3">
    <g id="xtick_4">
     <g id="line2d_8">
      <g>
       <use xlink:href="#m9e2b6f2d7d" x="429.111246" y="270.866947" style="fill: #2d3238; stroke: #2d3238; stroke-width: 0.8"/>
      </g>
     </g>
     <g id="text_14">
      <text style="fill: #2d3238; font: 7px 'DejaVu Sans'; text-anchor: middle" x="429.111246" y="283.185854" transform="rotate(-0 429.111246 283.185854)">−2</text>
     </g>
    </g>
    <g id="xtick_5">
     <g id="line2d_9">
      <g>
       <use xlink:href="#m9e2b6f2d7d" x="531.514497" y="270.866947" style="fill: #2d3238; stroke: #2d3238; stroke-width: 0.8"/>
      </g>
     </g>
     <g id="text_15">
      <text style="fill: #2d3238; font: 7px 'DejaVu Sans'; text-anchor: middle" x="531.514497" y="283.185854" transform="rotate(-0 531.514497 283.185854)">0</text>
     </g>
    </g>
    <g id="xtick_6">
     <g id="line2d_10">
      <g>
       <use xlink:href="#m9e2b6f2d7d" x="633.917748" y="270.866947" style="fill: #2d3238; stroke: #2d3238; stroke-width: 0.8"/>
      </g>
     </g>
     <g id="text_16">
      <text style="fill: #2d3238; font: 7px 'DejaVu Sans'; text-anchor: middle" x="633.917748" y="283.185854" transform="rotate(-0 633.917748 283.185854)">2</text>
     </g>
    </g>
    <g id="text_17">
     <text style="fill: #2d3238; font: 10px 'DejaVu Sans'; text-anchor: middle" x="557.11531" y="296.240072" transform="rotate(-0 557.11531 296.240072)">East (working m)</text>
    </g>
   </g>
   <g id="matplotlib.axis_4">
    <g id="ytick_4">
     <g id="line2d_11">
      <g>
       <use xlink:href="#ma7a805ba48" x="397.230859" y="261.509897" style="fill: #2d3238; stroke: #2d3238; stroke-width: 0.8"/>
      </g>
     </g>
     <g id="text_18">
      <text style="fill: #2d3238; font: 7px 'DejaVu Sans'; text-anchor: end" x="390.230859" y="264.169351" transform="rotate(-0 390.230859 264.169351)">0.0</text>
     </g>
    </g>
    <g id="ytick_5">
     <g id="line2d_12">
      <g>
       <use xlink:href="#ma7a805ba48" x="397.230859" y="184.707459" style="fill: #2d3238; stroke: #2d3238; stroke-width: 0.8"/>
      </g>
     </g>
     <g id="text_19">
      <text style="fill: #2d3238; font: 7px 'DejaVu Sans'; text-anchor: end" x="390.230859" y="187.366912" transform="rotate(-0 390.230859 187.366912)">1.5</text>
     </g>
    </g>
    <g id="ytick_6">
     <g id="line2d_13">
      <g>
       <use xlink:href="#ma7a805ba48" x="397.230859" y="107.905021" style="fill: #2d3238; stroke: #2d3238; stroke-width: 0.8"/>
      </g>
     </g>
     <g id="text_20">
      <text style="fill: #2d3238; font: 7px 'DejaVu Sans'; text-anchor: end" x="390.230859" y="110.564474" transform="rotate(-0 390.230859 110.564474)">3.0</text>
     </g>
    </g>
    <g id="text_21">
     <text style="fill: #2d3238; font: 10px 'DejaVu Sans'; text-anchor: middle" x="373.018984" y="159.106646" transform="rotate(-90 373.018984 159.106646)">North (working m)</text>
    </g>
   </g>
   <g id="line2d_14">
    <path d="M 531.514497 261.509897 
L 531.514497 210.308272 
L 582.716122 107.905021 
L 582.716122 56.703395 
" clip-path="url(#pfdd6912477)" style="fill: none; stroke: #5b9fbe; stroke-width: 1.7; stroke-linecap: square"/>
    <g clip-path="url(#pfdd6912477)">
     <use xlink:href="#mcf0f27fb37" x="531.514497" y="261.509897" style="fill: #5b9fbe; stroke: #5b9fbe"/>
     <use xlink:href="#mcf0f27fb37" x="531.514497" y="210.308272" style="fill: #5b9fbe; stroke: #5b9fbe"/>
     <use xlink:href="#mcf0f27fb37" x="582.716122" y="107.905021" style="fill: #5b9fbe; stroke: #5b9fbe"/>
     <use xlink:href="#mcf0f27fb37" x="582.716122" y="56.703395" style="fill: #5b9fbe; stroke: #5b9fbe"/>
    </g>
   </g>
   <g id="patch_10">
    <path d="M 397.230859 270.866947 
L 397.230859 47.346345 
" style="fill: none; stroke: #70757a; stroke-width: 0.8; stroke-linejoin: miter; stroke-linecap: square"/>
   </g>
   <g id="patch_11">
    <path d="M 397.230859 270.866947 
L 716.99976 270.866947 
" style="fill: none; stroke: #70757a; stroke-width: 0.8; stroke-linejoin: miter; stroke-linecap: square"/>
   </g>
   <g id="patch_12">
    <path d="M 536.001418 254.831225 
Q 534.315536 257.340619 532.629654 259.850013 
" style="fill: none; stroke: #70757a; stroke-width: 0.5; stroke-linecap: round"/>
   </g>
   <g id="text_22">
    <text style="fill: #2d3238; font: 8px 'DejaVu Sans'; text-anchor: start" x="538.514497" y="249.509897" transform="rotate(-0 538.514497 249.509897)">0</text>
   </g>
   <g id="patch_13">
    <path d="M 536.001418 203.6296 
Q 534.315536 206.138993 532.629654 208.648387 
" style="fill: none; stroke: #70757a; stroke-width: 0.5; stroke-linecap: round"/>
   </g>
   <g id="text_23">
    <text style="fill: #2d3238; font: 8px 'DejaVu Sans'; text-anchor: start" x="538.514497" y="198.308272" transform="rotate(-0 538.514497 198.308272)">1</text>
   </g>
   <g id="patch_14">
    <path d="M 535.859864 165.38569 
Q 534.256873 163.069373 532.653883 160.753056 
" style="fill: none; stroke: #70757a; stroke-width: 0.5; stroke-linecap: round"/>
   </g>
   <g id="text_24">
    <text style="fill: #2d3238; font: 8px 'DejaVu Sans'; text-anchor: start" x="538.514497" y="175.106646" transform="rotate(-0 538.514497 175.106646)">2</text>
   </g>
   <g id="patch_15">
    <path d="M 587.203043 101.226349 
Q 585.517162 103.735742 583.83128 106.245136 
" style="fill: none; stroke: #70757a; stroke-width: 0.5; stroke-linecap: round"/>
   </g>
   <g id="text_25">
    <text style="fill: #2d3238; font: 8px 'DejaVu Sans'; text-anchor: start" x="589.716122" y="95.905021" transform="rotate(-0 589.716122 95.905021)">3</text>
   </g>
   <g id="patch_16">
    <path d="M 587.06149 62.982439 
Q 585.458499 60.666122 583.855508 58.349805 
" style="fill: none; stroke: #70757a; stroke-width: 0.5; stroke-linecap: round"/>
   </g>
   <g id="text_26">
    <text style="fill: #2d3238; font: 8px 'DejaVu Sans'; text-anchor: start" x="589.716122" y="72.703395" transform="rotate(-0 589.716122 72.703395)">4</text>
   </g>
   <g id="text_27">
    <g id="patch_17">
     <path d="M 402.823926 79.223125 
L 578.617676 79.223125 
L 578.617676 54.522375 
L 402.823926 54.522375 
z
" style="fill: #fcfaf7; opacity: 0.9"/>
    </g>
    <text style="fill: #2d3238; font: 8px 'DejaVu Sans'" transform="translate(406.823926 64.601125)">DP input max error: 0 working m</text>
    <text style="fill: #2d3238; font: 8px 'DejaVu Sans'" transform="translate(406.823926 73.559375)">Common raw max error: 0.447 working m</text>
   </g>
   <g id="text_28">
    <text style="fill: #2d3238; font: 10px 'DejaVu Sans'" transform="translate(397.230859 30.148532)">Synthetic: own-clean error</text>
    <text style="fill: #2d3238; font: 10px 'DejaVu Sans'" transform="translate(397.230859 41.346345)">versus the common raw reference</text>
   </g>
  </g>
  <g id="text_29">
   <text style="fill: #2d3238; font: 14px 'DejaVu Sans'; text-anchor: middle" x="360" y="13.638053" transform="rotate(-0 360 13.638053)">Analytic risk tests · authored examples, not real-data accuracy</text>
  </g>
  <g id="legend_1">
   <g id="PathCollection_3">
    <g>
     <use xlink:href="#me606e1d97a" x="276.201563" y="311.665781" style="fill: #70757a; fill-opacity: 0.45; stroke: #70757a; stroke-opacity: 0.45"/>
    </g>
   </g>
   <g id="text_30">
    <text style="fill: #2d3238; font: 9px 'DejaVu Sans'; text-anchor: start" x="292.401563" y="314.028281" transform="rotate(-0 292.401563 314.028281)">Raw points</text>
   </g>
   <g id="line2d_15">
    <path d="M 359.829844 310.878281 
L 368.829844 310.878281 
L 377.829844 310.878281 
" style="fill: none; stroke: #5b9fbe; stroke-width: 1.7; stroke-linecap: square"/>
    <g>
     <use xlink:href="#mcf0f27fb37" x="368.829844" y="310.878281" style="fill: #5b9fbe; stroke: #5b9fbe"/>
    </g>
   </g>
   <g id="text_31">
    <text style="fill: #2d3238; font: 9px 'DejaVu Sans'; text-anchor: start" x="385.029844" y="314.028281" transform="rotate(-0 385.029844 314.028281)">Final segments</text>
   </g>
  </g>
 </g>
 <defs>
  <clipPath id="p9852d05117">
   <rect x="38.451646" y="47.346345" width="319.768901" height="223.520602"/>
  </clipPath>
  <clipPath id="pfdd6912477">
   <rect x="397.230859" y="47.346345" width="319.768901" height="223.520602"/>
  </clipPath>
 </defs>
</svg>
